<svg width="22" height="21" viewBox="0 0 22 21" fill="none" xmlns="http://www.w3.org/2000/svg">
<path d="M8.57947 12.8078C7.95785 12.1379 7.57947 11.2275 7.57947 10.2063C7.57947 8.16036 9.10595 6.51123 11 6.51123C11.9373 6.51123 12.8 6.92089 13.4108 7.59081" stroke="#F5F5F5" stroke-width="1.5" stroke-linecap="round" stroke-linejoin="round"/>
<path d="M14.357 10.8613C14.1062 12.3669 13.0078 13.555 11.6143 13.8281" stroke="#F5F5F5" stroke-width="1.5" stroke-linecap="round" stroke-linejoin="round"/>
<path d="M5.22162 16.4323C3.50595 14.9781 2.05297 12.854 1 10.2058C2.06378 7.54594 3.52649 5.41012 5.25297 3.94423C6.96865 2.47834 8.94811 1.68237 11 1.68237C13.0638 1.68237 15.0422 2.49001 16.7686 3.96641" stroke="#F5F5F5" stroke-width="1.5" stroke-linecap="round" stroke-linejoin="round"/>
<path d="M19.052 6.53369C19.7958 7.60043 20.4498 8.83173 21.0001 10.2054C18.8736 15.5239 15.1158 18.7277 11.0001 18.7277C10.0671 18.7277 9.14711 18.5643 8.26279 18.2456" stroke="#F5F5F5" stroke-width="1.5" stroke-linecap="round" stroke-linejoin="round"/>
<path d="M19.5269 1L2.47394 19.41" stroke="#F5F5F5" stroke-width="1.5" stroke-linecap="round" stroke-linejoin="round"/>
</svg>
